/* XPM */
static char * torque_xpm[] = {
"32 32 48 1",
" 	c None",
".	c #4D4D4D",
"+	c #424242",
"@	c #333366",
"#	c #ADA990",
"$	c #868686",
"%	c #777777",
"&	c #CCCCCC",
"*	c #969696",
"=	c #336666",
"-	c #393939",
";	c #FFFF66",
">	c #FFCC33",
",	c #FF9933",
"'	c #CC6600",
")	c #D7D7D7",
"!	c #F1F1F1",
"~	c #A0A0A4",
"{	c #FFCC66",
"]	c #993333",
"^	c #C0C0C0",
"/	c #EAEAEA",
"(	c #CCCC66",
"_	c #CC9933",
":	c #CC3300",
"<	c #993300",
"[	c #CC9900",
"}	c #5F5F5F",
"|	c #CCCC33",
"1	c #FF9900",
"2	c #B2B2B2",
"3	c #666666",
"4	c #996633",
"5	c #666699",
"6	c #999999",
"7	c #DDDDDD",
"8	c #E3E3E3",
"9	c #9999CC",
"0	c #99CCCC",
"a	c #A6CAF0",
"b	c #FFFFFF",
"c	c #6699CC",
"d	c #336699",
"e	c #669999",
"f	c #555555",
"g	c #339999",
"h	c #1C1C1C",
"i	c #040404",
"                                ",
"                                ",
"                                ",
"                                ",
"          .+@@          #$%%    ",
"         .&*@=@-@      #;;>,'   ",
"         )!~-====@    #;{>>,']  ",
"         ^/^@=====@  #(;>>>_':< ",
"         ~/&+=====@  #{>>>,[':< ",
"         ~!/}@=====@ $>>|%1[::< ",
"         $2~3++++++%%%4_[3%'::< ",
"      ===56^&))7777878))&/)%:<  ",
"   ===90aa7788/!!!bbbbbbbbb)%   ",
" ==c900aaa)88!!bbbbbbbbbbbbb7%  ",
"dccc90aaaa^~$%%%%%%%%%%%%&&)!8$ ",
"5ccccce$6%$2^-=======    %%%$$$ ",
"5c55*2&8b^^//3===dddd           ",
"@5^/bbbbb!28/$===dddd=          ",
" $$$$^&)7&28/*@dddddd=          ",
"     $$$$$6/82@ddddddd          ",
"          */7)=ddddddd=         ",
"          $/)7fddddddd@         ",
"          $7)83ddddddgd         ",
"          $77/$ddddddgd=        ",
"          $)7/$=dddddee=        ",
"          $&8/~=dddggcc=        ",
"          $^/8^=dddddd5===      ",
"    hhhhhiihhhhhhhhhhhhhhhhhhii=",
"                                ",
"                                ",
"                                ",
"                                "};
